<svg xmlns="http://www.w3.org/2000/svg" viewBox="0 0 200 200" role="img" aria-hidden="true">
  <title>Illustrative rendering — not an exact product photograph</title>
  <ellipse cx="100" cy="176.9" rx="71.68" ry="7.884800000000001" fill="#0b1f3a" opacity="0.08"/><rect x="36" y="74" width="128" height="98" rx="16" ry="16" fill="#d9e8fc" stroke="#1c6dd0" stroke-width="2"/><rect x="42.4" y="78.9" width="115.2" height="13.72" rx="8" ry="8" fill="#ffffff" opacity="0.22"/><rect x="71" y="65" width="58" height="20" rx="10" ry="10" fill="#d9e8fc"/><rect x="79.12" y="69.4" width="41.76" height="11.200000000000001" rx="5.6000000000000005" ry="5.6000000000000005" fill="#1657ac" opacity="0.55"/><rect x="78.24" y="113.2" width="43.52" height="21.56" rx="3.8808" ry="3.8808" fill="#f2f5fa"/><line x1="84.33279999999999" y1="120.0992" x2="115.6672" y2="120.0992" stroke="#1657ac" stroke-width="1.4" stroke-linecap="round" opacity="0.6"/><line x1="84.33279999999999" y1="125.058" x2="115.6672" y2="125.058" stroke="#1657ac" stroke-width="1.4" stroke-linecap="round" opacity="0.6"/><line x1="84.33279999999999" y1="130.0168" x2="115.6672" y2="130.0168" stroke="#1657ac" stroke-width="1.4" stroke-linecap="round" opacity="0.6"/><circle cx="89.76" cy="147.5" r="6.4" fill="none" stroke="#1657ac" stroke-width="1.6"/><circle cx="87.2" cy="145.9" r="1.024" fill="#1657ac"/><circle cx="92.32000000000001" cy="145.9" r="1.024" fill="#1657ac"/><circle cx="89.76" cy="150.38" r="1.024" fill="#1657ac"/><circle cx="110.24000000000001" cy="147.5" r="6.4" fill="none" stroke="#1657ac" stroke-width="1.6"/><circle cx="107.68" cy="145.9" r="1.024" fill="#1657ac"/><circle cx="112.80000000000001" cy="145.9" r="1.024" fill="#1657ac"/><circle cx="110.24000000000001" cy="150.38" r="1.024" fill="#1657ac"/><rect x="83.35999999999999" y="134.76" width="12.8" height="4.9" rx="1.47" ry="1.47" fill="none" stroke="#1657ac" stroke-width="1.4"/><rect x="103.83999999999999" y="134.76" width="12.8" height="4.9" rx="1.47" ry="1.47" fill="none" stroke="#1657ac" stroke-width="1.4"/><circle cx="170" cy="91.64" r="6" fill="none" stroke="#4f8ee6" stroke-width="1.4"/><line x1="179" y1="91.64" x2="182.6" y2="91.64" stroke="#4f8ee6" stroke-width="1.4" stroke-linecap="round"/><line x1="176.36396103067892" y1="98.00396103067892" x2="178.9095454429505" y2="100.5495454429505" stroke="#4f8ee6" stroke-width="1.4" stroke-linecap="round"/><line x1="170" y1="100.64" x2="170" y2="104.24000000000001" stroke="#4f8ee6" stroke-width="1.4" stroke-linecap="round"/><line x1="163.63603896932108" y1="98.00396103067892" x2="161.0904545570495" y2="100.5495454429505" stroke="#4f8ee6" stroke-width="1.4" stroke-linecap="round"/><line x1="161" y1="91.64" x2="157.4" y2="91.64" stroke="#4f8ee6" stroke-width="1.4" stroke-linecap="round"/><line x1="163.63603896932108" y1="85.27603896932108" x2="161.0904545570495" y2="82.7304545570495" stroke="#4f8ee6" stroke-width="1.4" stroke-linecap="round"/><line x1="170" y1="82.64" x2="170" y2="79.03999999999999" stroke="#4f8ee6" stroke-width="1.4" stroke-linecap="round"/><line x1="176.36396103067892" y1="85.27603896932108" x2="178.9095454429505" y2="82.7304545570495" stroke="#4f8ee6" stroke-width="1.4" stroke-linecap="round"/>
</svg>
